<svg width="104" height="24" viewBox="0 0 104 24" fill="none" xmlns="http://www.w3.org/2000/svg">
<path d="M90.1033 8.88C88.8609 7.74 87.1452 7.14 85.1337 7.14C83.773 7.14 82.5897 7.32 81.584 7.68C80.5782 8.04 79.6316 8.58 78.8034 9.3C78.6259 9.42 78.6259 9.66 78.7442 9.78L80.0458 11.58V11.64C80.1641 11.76 80.4007 11.82 80.5782 11.64C81.0515 11.16 81.6431 10.8 82.2348 10.56C82.8264 10.32 83.5363 10.2 84.3646 10.2C85.607 10.2 86.5536 10.56 87.2044 11.16C87.8551 11.76 88.2101 12.72 88.2101 13.86V14.1C87.6777 13.98 87.1452 13.92 86.6127 13.86C85.9028 13.8 85.1928 13.74 84.5421 13.74C82.4714 13.74 80.7557 14.22 79.5725 15.12C78.3301 16.02 77.6201 17.34 77.6201 18.9C77.6201 20.4 78.2117 21.66 79.2175 22.56C80.2232 23.46 81.6431 23.94 83.2997 23.94C84.4829 23.94 85.607 23.64 86.6127 23.1C87.2635 22.74 87.8551 22.26 88.3284 21.72L88.3876 23.34C88.3876 23.52 88.5651 23.7 88.7426 23.7H91.6415C91.819 23.7 91.9965 23.52 91.9965 23.34V13.56C92.0556 11.64 91.3457 10.02 90.1033 8.88ZM87.086 19.8C86.3169 20.64 85.1929 21.12 84.1871 21.12C83.3588 21.12 82.6489 20.88 82.2348 20.52C81.8206 20.16 81.584 19.56 81.584 18.9C81.584 18.24 81.8798 17.64 82.4714 17.28C83.063 16.86 83.9504 16.62 85.0154 16.62C85.5478 16.62 86.1986 16.68 86.7902 16.74C87.3227 16.8 87.796 16.86 88.3284 16.98C88.2101 18.12 87.7368 19.08 87.086 19.8Z" fill="#1D243C"/>
<path d="M75.8451 20.52V22.92C75.8451 23.1 75.7268 23.22 75.6084 23.28C75.0168 23.52 74.4252 23.7 73.7153 23.82C73.0645 23.94 72.3545 24 71.5854 24C70.1064 24 68.9231 23.52 68.0357 22.62C67.1483 21.72 66.675 20.52 66.675 19.02V10.56H64.3677C64.1902 10.56 64.0127 10.38 64.0127 10.2V7.73999C64.0127 7.55999 64.1902 7.37999 64.3677 7.37999H66.675V3.17999C66.675 2.99999 66.8525 2.81999 67.03 2.81999H70.0472C70.2247 2.81999 70.4022 2.99999 70.4022 3.17999V7.37999H75.1943C75.3718 7.37999 75.5493 7.55999 75.5493 7.73999V10.2C75.5493 10.38 75.3718 10.56 75.1943 10.56H70.4022V18.42C70.4022 19.08 70.6388 19.68 70.9938 20.04C71.3488 20.4 71.8812 20.64 72.532 20.64C73.0053 20.64 73.4786 20.58 73.9519 20.52C74.4252 20.46 74.8985 20.34 75.3126 20.16C75.4901 20.1 75.7268 20.16 75.7859 20.34C75.8451 20.46 75.8451 20.52 75.8451 20.52Z" fill="#1D243C"/>
<path d="M47.4482 15.54C47.4482 13.02 48.3357 10.92 49.8147 9.42C51.3529 7.92 53.4828 7.08 56.0267 7.08C57.0916 7.08 58.0382 7.26 58.9257 7.56C59.8723 7.86 60.7005 8.34 61.4696 8.94C61.6471 9.06 61.6471 9.3 61.5288 9.48L59.8131 11.52C59.6948 11.7 59.4581 11.7 59.2806 11.58C58.8073 11.22 58.334 10.92 57.8016 10.74C57.2691 10.56 56.6775 10.44 56.0267 10.44C54.6068 10.44 53.4236 10.92 52.5953 11.82C51.7671 12.72 51.2938 14.04 51.2938 15.54C51.2938 17.04 51.7671 18.36 52.5953 19.26C53.4236 20.16 54.6068 20.64 56.0859 20.64C56.855 20.64 57.5649 20.52 58.1566 20.28C58.7482 20.04 59.2806 19.68 59.7539 19.2C59.8723 19.08 60.1089 19.02 60.2864 19.2L60.3456 19.26L62.0612 21.24C62.1796 21.36 62.1796 21.6 62.0612 21.72C61.2921 22.44 60.4047 22.98 59.3398 23.34C58.2749 23.7 57.1508 23.88 55.9676 23.88C53.4236 23.88 51.2938 23.04 49.8147 21.54C48.3357 20.16 47.4482 18.06 47.4482 15.54Z" fill="#1D243C"/>
<path d="M43.4244 9.36C42.0045 7.92 40.0522 7.08 37.6265 7.08C35.2009 7.08 33.2485 7.92 31.8286 9.42C30.4088 10.92 29.6396 13.02 29.6396 15.6C29.6396 18.12 30.4679 20.22 31.8878 21.66C33.3077 23.16 35.3192 24 37.7448 24C39.2239 24 40.5846 23.7 41.827 23.1C43.0694 22.5 44.0752 21.6 44.8443 20.46V20.4C44.9626 20.22 44.8443 19.98 44.6668 19.92L42.3595 18.72C42.182 18.66 42.0045 18.66 41.8862 18.84C41.3537 19.5 40.7029 20.04 39.993 20.46C39.283 20.82 38.5139 21 37.6857 21C36.4433 21 35.4967 20.64 34.8459 19.92C34.1951 19.26 33.781 18.3 33.6035 17.1H45.1401C45.3176 17.1 45.4951 16.98 45.4951 16.8C45.5542 16.44 45.5542 15.84 45.5542 15.48C45.6134 12.9 44.8443 10.8 43.4244 9.36ZM33.6627 14.22C33.8401 13.02 34.2543 12 34.9051 11.34C35.615 10.62 36.5024 10.2 37.6857 10.2C38.8689 10.2 39.8155 10.62 40.5254 11.34C41.1762 12 41.5904 13.02 41.7678 14.22H33.6627Z" fill="#1D243C"/>
<path d="M22.4224 0.36V13.2H9.70256V0.36C9.70256 0.18 9.52507 0 9.34759 0H6.44865C6.27117 0 6.09368 0.18 6.09368 0.36V13.2H0.354972C0.177486 13.2 0 13.38 0 13.56V16.44C0 16.62 0.177486 16.8 0.354972 16.8H6.03452V23.64C6.03452 23.82 6.21201 24 6.38949 24H9.28843C9.46591 24 9.6434 23.82 9.6434 23.64V16.8H22.3632V23.64C22.3632 23.82 22.5407 24 22.7182 24H25.6171C25.7946 24 25.9721 23.82 25.9721 23.64V0.36C26.0313 0.18 25.8538 0 25.6763 0H22.7774C22.5999 0 22.4224 0.18 22.4224 0.36Z" fill="#1D243C"/>
<path d="M92 1.15068V0H96.8476V1.15068H95.0993V5.91781H93.7483V1.15068H92Z" fill="#1D243C"/>
<path d="M97.5635 0H99.3118L100.742 3.69863H100.822L102.252 0H104V6H102.649V2.30137H102.57L101.219 5.91781H100.345L98.9939 2.30137H98.9144V6H97.5635V0Z" fill="#1D243C"/>
</svg>
